<?xml version="1.0" encoding="utf-8"?>
<!-- Generator: Adobe Illustrator 27.0.1, SVG Export Plug-In . SVG Version: 6.00 Build 0)  -->
<svg version="1.1" xmlns="http://www.w3.org/2000/svg" xmlns:xlink="http://www.w3.org/1999/xlink" x="0px" y="0px"
	 viewBox="0 0 2000 2000" style="enable-background:new 0 0 2000 2000;" xml:space="preserve">
<style type="text/css">
	.st0{fill:#9BED1A;}
	.st1{fill:#131A39;}
	.st2{fill:#FFFFFF;}
	.st3{fill:#0A81D1;}
</style>
<g id="BG">
	<rect x="-0.6" class="st0" width="2000.6" height="2001"/>
</g>
<g id="logo">
	<g>
		<g>
			<g>
				<path class="st1" d="M300.2,1311.2H250v-182h53.4c23.9,0.3,43.6,5.3,59.1,15.1c15.5,9.8,26.8,22.3,33.8,37.5
					c5.5,11.8,8.3,24.2,8.3,37.2c0,13.5-2.8,26.3-8.4,38.3c-4.8,10.2-11.5,19.4-20.2,27.5c-8.7,8.1-19.4,14.5-32,19.3
					C331.3,1308.8,316.7,1311.2,300.2,1311.2z M300.2,1276.3c11.4,0,21.3-1.5,29.9-4.5c8.5-3,15.7-7.1,21.4-12.2
					c5.7-5.1,10.2-10.9,13.2-17.2c3.4-7.3,5.1-15,5.1-22.9c0-8-1.7-15.5-5-22.8c-4.4-9.5-11.7-17.2-21.9-23.3
					c-10.2-6.1-23.4-9.2-39.5-9.4l-18.6,0.1v112.3H300.2z"/>
				<path class="st1" d="M470.3,1311.2h-34.7V1158h34.7v21c12.5-14,30.2-21,53-21v36.1c-3.5-1-8-1.5-13.5-1.5
					c-5.1,0-10.4,1.1-15.9,3.2c-6.3,2.4-11.6,5.9-16,10.4c-4.4,4.5-6.9,9.6-7.6,15.3V1311.2z"/>
				<path class="st1" d="M553,1158h34.6v89.4c0.1,19.5,7.9,29.2,23.5,29.2c5.1,0,10.4-1.1,15.9-3.2c6.3-2.4,11.6-5.9,16-10.4
					c4.4-4.5,6.9-9.6,7.6-15.3V1158h34.7v153.2h-34.7v-15.9c-12.5,10.6-25.8,15.9-39.7,15.9c-8.9,0-17.4-1.8-25.5-5.5
					c-6.3-2.9-11.9-6.9-16.7-12c-4.8-5.2-8.6-11.6-11.4-19.2c-2.8-7.7-4.2-16.7-4.2-27V1158z"/>
				<path class="st1" d="M795.3,1158c10.5,0,20.4,2,29.7,6c9.3,4,17.4,9.5,24.4,16.4c7,7,12.5,15.1,16.5,24.4c4,9.3,6,19.2,6,29.8
					c0,10.6-2,20.5-6,29.8c-4,9.3-9.5,17.4-16.5,24.4c-7,7-15.1,12.5-24.4,16.5c-9.3,4-19.2,6-29.7,6c-14.2,0-27.4-3.7-39.5-11v56.5
					h-34.7V1158h34.7v10.9C767.9,1161.6,781.1,1158,795.3,1158z M795.3,1192.7c-9.4,0-17.8,2.8-25.1,8.3
					c-6.6,4.9-11.4,11.4-14.4,19.4v28.5c3.1,8.4,8.3,15.1,15.4,20.1c7.1,5,15.2,7.6,24.1,7.6c5.8,0,11.2-1.1,16.3-3.3
					c5.1-2.2,9.5-5.2,13.3-9c3.8-3.8,6.8-8.3,9-13.4c2.2-5.1,3.3-10.5,3.3-16.3c0-5.8-1.1-11.2-3.3-16.3c-2.2-5.1-5.2-9.5-9-13.3
					c-3.8-3.8-8.3-6.8-13.3-9C806.5,1193.8,801.1,1192.7,795.3,1192.7z"/>
				<path class="st1" d="M1024.4,1311.2h-34.7v-13.6c-10.4,8.6-21.3,13-32.6,13c-17.9,0-33.4-5.3-46.4-15.8
					c-12.4-10-18.6-22.2-18.6-36.5c0-29.4,22.7-44.1,68.2-44.1c9.7,0,19.3,1.6,28.8,4.8c-0.7-18.9-12.3-28.4-34.6-28.4
					c-6.9,0-13.5,0.8-19.6,2.4c-6.2,1.6-11,3.8-14.6,6.4l-21.4-25.4c6.5-4.7,14.8-8.5,24.8-11.5c10-3,20.3-4.5,30.9-4.5
					c10.1,0,20.1,1.6,30,4.9c10.4,3.5,19.3,9.5,26.5,17.8c8.6,9.7,13,22.8,13.4,39.3V1311.2z M957.2,1283.8
					c13.7,0,24.6-5.5,32.5-16.4v-25.5c-8.6-4-18.4-6-29.4-6c-12.9,0-21.7,2-26.4,5.9c-4.7,3.9-7,9.4-7,16.4c0,7.4,2.7,13.5,8.1,18.4
					S947.8,1283.8,957.2,1283.8z"/>
				<rect x="1058.2" y="1112.5" class="st1" width="34.7" height="198.8"/>
			</g>
			<g>
				<polygon class="st2" points="1273.7,1311.2 1134.7,1311.2 1134.7,1129.2 1273.7,1129.2 1273.7,1164.1 1169.6,1164.1 
					1169.6,1202.7 1261.5,1202.7 1261.5,1237.6 1169.6,1237.6 1169.6,1276.3 1273.7,1276.3 				"/>
				<path class="st2" d="M1429.1,1311.2h-34.7v-13.6c-10.4,8.6-21.3,13-32.6,13c-17.9,0-33.4-5.3-46.4-15.8
					c-12.4-10-18.6-22.2-18.6-36.5c0-29.4,22.7-44.1,68.2-44.1c9.7,0,19.3,1.6,28.8,4.8c-0.7-18.9-12.3-28.4-34.6-28.4
					c-6.9,0-13.5,0.8-19.6,2.4c-6.2,1.6-11,3.8-14.6,6.4l-21.4-25.4c6.5-4.7,14.8-8.5,24.8-11.5c10-3,20.3-4.5,30.9-4.5
					c10.1,0,20.1,1.6,30,4.9c10.4,3.5,19.3,9.5,26.5,17.8c8.6,9.7,13,22.8,13.4,39.3V1311.2z M1362,1283.8
					c13.7,0,24.6-5.5,32.5-16.4v-25.5c-8.6-4-18.4-6-29.4-6c-12.9,0-21.7,2-26.4,5.9c-4.7,3.9-7,9.4-7,16.4c0,7.4,2.7,13.5,8.1,18.4
					C1345.2,1281.4,1352.6,1283.8,1362,1283.8z"/>
				<path class="st2" d="M1513.4,1311.2c-9.6,0-19-1.5-28.1-4.5c-9.2-3-16.7-7.2-22.7-12.6l23.8-24.6c2.7,2.4,6.5,4.4,11.4,5.7
					c4.9,1.4,10.1,2,15.6,2c5,0,9.6-0.7,14-2c3.5-1.1,6.3-2.6,8.2-4.4c1.9-1.8,2.9-4.5,2.9-8c0-1.8-1.3-3.4-4-4.8
					c-2.7-1.4-6.1-2.6-10.2-3.7c-4.2-1.1-8.5-2.2-13.2-3.3c-6.8-1.5-13.4-3.2-19.8-5.1c-6.4-1.9-12.2-4.4-17.3-7.6
					c-5.1-3.1-9.2-7.2-12.3-12.3c-3.1-5.1-4.6-11.7-4.6-19.8c0-12.4,4.1-22.8,12.5-31.1c11.4-11.4,27.2-17.1,47.3-17.1
					c9.6,0,19,1.5,28.1,4.5c9.2,3,16.8,7.2,22.8,12.6l-23.9,24.6c-2.7-2.4-6.5-4.3-11.4-5.7c-4.9-1.3-10.1-2-15.7-2
					c-5,0-9.6,0.6-14,1.9c-3.5,1.1-6.2,2.6-8.1,4.4c-1.9,1.8-2.8,4.5-2.8,8c0,1.8,1.3,3.4,3.9,4.8c2.6,1.4,6,2.6,10.2,3.7
					c4.1,1.1,8.5,2.2,13.2,3.3c6.8,1.5,13.4,3.2,19.8,5.1c6.4,1.9,12.2,4.4,17.3,7.6c5.1,3.1,9.2,7.2,12.3,12.3
					c3.1,5.1,4.6,11.7,4.6,19.8c0,12.4-4.2,22.8-12.5,31.1C1549.2,1305.5,1533.5,1311.2,1513.4,1311.2z"/>
				<path class="st2" d="M1624.8,1359.1c-6.7,0-13.1-1.2-19.4-3.6c-6.3-2.4-11.8-5.9-16.5-10.4l23.9-19.8c3.2,2.8,7.2,4.2,12.1,4.2
					c11.6,0,20.4-7.2,26.6-21.6l-60.3-149.9h37.9l40.2,99.8l42.7-99.8h38.1l-62.2,145.9c-6.1,15.7-14.6,28.8-25.3,39.2
					C1652.1,1353.8,1639.5,1359.1,1624.8,1359.1z"/>
			</g>
		</g>
		<g>
			<path class="st3" d="M1073.3,856.3c0-5-0.8-9.8-2.4-14.3c-2.4-6.8-6.4-12.9-11.7-17.8c-5.3-4.9-11.9-8.6-19.4-10.4l-0.1,0
				l-169.2-39.8c-8.6-2-17.1,3.3-19.2,11.9c-2,8.6,3.3,17.1,11.9,19.2l0,0l169.1,39.8c1.4,0.3,2.6,0.9,3.7,1.6c1.6,1.1,3,2.6,4,4.3
				c0.9,1.7,1.4,3.7,1.4,5.7c0,0.9-0.1,1.9-0.3,2.8c-0.3,1.4-0.9,2.6-1.6,3.7c-1.1,1.6-2.6,3-4.3,4c-1.7,0.9-3.7,1.4-5.7,1.4
				c-0.9,0-1.9-0.1-2.8-0.3l-0.2-0.1l-136.2-31c-8.6-2-17.1,3.4-19.1,12c-2,8.6,3.4,17.1,12,19.1l136.2,31l0,0
				c3.4,0.8,6.8,1.2,10.1,1.2c5,0,9.8-0.8,14.3-2.4c6.8-2.4,12.9-6.4,17.8-11.7c4.9-5.3,8.6-11.9,10.4-19.4c0,0,0,0,0,0l0,0
				C1072.9,863.2,1073.3,859.7,1073.3,856.3z"/>
			<path class="st2" d="M1129.9,856.3c0-11.2-1.9-22.1-5.5-32.3c-5.3-15.4-14.4-29.2-26.4-40.3c-12-11.1-26.9-19.4-43.9-23.5l-0.2,0
				l-192.2-44.5c-8.6-2-17.1,3.4-19.1,11.9c-2,8.6,3.4,17.1,11.9,19.1h0l192.1,44.5c7.7,1.9,14.7,5,21,9.1
				c9.4,6.1,17,14.5,22.2,24.2c5.3,9.7,8.1,20.6,8.1,32c0,5.2-0.6,10.6-1.9,15.9v0c-1.9,7.7-5,14.7-9.1,21
				c-6.1,9.4-14.5,17-24.2,22.2c-9.7,5.3-20.6,8.1-32,8.1c-5.2,0-10.6-0.6-15.9-1.9l-92.4-23c-8.5-2.1-17.2,3.1-19.3,11.6
				c-2.1,8.5,3.1,17.2,11.6,19.3l92.5,23l0.1,0c7.8,1.9,15.7,2.8,23.5,2.8c11.2,0,22.1-1.9,32.3-5.5c15.4-5.3,29.2-14.4,40.3-26.4
				c11.1-12,19.4-26.9,23.5-43.9c0,0,0,0,0,0C1129,871.9,1129.9,864,1129.9,856.3z"/>
			<path class="st1" d="M1181.5,788.8c-8.6-19.4-21.5-37.5-38.4-52.7c-4.5-4-9.5-7.7-15.1-11.2c-10.5-6.5-22.8-12.5-36.6-18.1
				c-12-4.9-25.1-9.6-38.9-14.1c-24.1-7.8-50.2-14.9-75.9-21.2c-38.5-9.4-76.1-17-104-22.3c-28-5.2-46.3-8.1-46.4-8.2
				c-8.7-1.4-16.9,4.6-18.2,13.3c-1.4,8.7,4.6,16.9,13.3,18.2l0,0c0.4,0.1,16.2,2.6,40.7,7.1c18.3,3.4,41.4,7.9,66.5,13.4
				c18.8,4.1,38.6,8.7,58.2,13.8c14.7,3.8,29.3,7.9,43.3,12.1c20.9,6.4,40.4,13.2,56.5,20.3c8,3.5,15.2,7.1,21.2,10.6
				c6,3.5,10.9,6.9,14.2,10c13.6,12.2,23.8,26.5,30.6,41.9c6.8,15.4,10.2,31.8,10.2,48.3c0,14.4-2.6,28.8-7.8,42.5
				c-5.2,13.8-13.1,26.9-23.8,38.7c-12.2,13.5-26.6,23.7-42.3,30.5c-15.6,6.8-32.5,10.3-49.3,10.3c-14.7,0-29.4-2.6-43.4-7.9
				c-14-5.3-27.2-13.1-39-23.8c-0.1-0.1-0.3-0.3-0.4-0.4l-41.7-10.4c-6.1-1.5-10.5-6.4-11.7-12.2c0.3,1.7,0.9,3.4,1.8,4.9h0
				c4.8,8.5,9.7,16.4,14.7,23.4c5.1,7,10.3,13.2,16,18.3c14.8,13.3,31.5,23.3,49.1,29.9c17.6,6.6,36.1,9.9,54.6,9.9
				c21.2,0,42.4-4.3,62.1-12.9c19.7-8.6,38-21.4,53.2-38.4c13.3-14.7,23.3-31.3,29.9-48.7c6.6-17.4,9.9-35.7,9.9-53.9
				C1194.4,829.1,1190.1,808.2,1181.5,788.8z"/>
		</g>
	</g>
</g>
</svg>
